<?xml version="1.0" encoding="UTF-8" standalone="no"?>
<svg
   viewBox="0 0 124.44 144.00"
   id="logo"
   version="1.1"
   xml:space="preserve"
   inkscape:export-xdpi="96"
   inkscape:export-ydpi="96"
   inkscape:version="1.2.2 (732a01da63, 2022-12-09)"
   sodipodi:docname="logo2.svg"
   inkscape:export-filename="logo3.svg"
   xmlns:inkscape="http://www.inkscape.org/namespaces/inkscape"
   xmlns:sodipodi="http://sodipodi.sourceforge.net/DTD/sodipodi-0.dtd"
   xmlns:xlink="http://www.w3.org/1999/xlink"
   xmlns="http://www.w3.org/2000/svg"
   xmlns:svg="http://www.w3.org/2000/svg"><sodipodi:namedview
   id="namedview105"
   pagecolor="#ffffff"
   bordercolor="#000000"
   borderopacity="0.25"
   inkscape:showpageshadow="2"
   inkscape:pageopacity="0.0"
   inkscape:pagecheckerboard="0"
   inkscape:deskcolor="#d1d1d1"
   showgrid="false"
   inkscape:zoom="1.3249068"
   inkscape:cx="36.606347"
   inkscape:cy="174.72927"
   inkscape:window-width="1920"
   inkscape:window-height="1001"
   inkscape:window-x="-9"
   inkscape:window-y="-9"
   inkscape:window-maximized="1"
   inkscape:current-layer="logo" />
<defs
   id="defs4"><linearGradient
     id="linearGradient991"><stop
       style="stop-color:#eea391;stop-opacity:1;"
       offset="0"
       id="stop987" /><stop
       style="stop-color:#fdfa81;stop-opacity:1;"
       offset="0.25235295"
       id="stop4079" /><stop
       style="stop-color:#c3dfa0;stop-opacity:1;"
       offset="0.5"
       id="stop5392" /><stop
       style="stop-color:#91d9ed;stop-opacity:1;"
       offset="0.75"
       id="stop7119" /><stop
       style="stop-color:#a0bedf;stop-opacity:1;"
       offset="1"
       id="stop989" /></linearGradient><style
     type="text/css"
     id="style6">
    line, polyline, path, rect, circle {
      fill: none;
      stroke: #000000;
      stroke-linecap: round;
      stroke-linejoin: round;
      stroke-miterlimit: 10.00;
    }
  </style><linearGradient
     xlink:href="#linearGradient991"
     id="linearGradient10849"
     x1="62.105"
     y1="2.743"
     x2="62.105"
     y2="141.48599"
     gradientUnits="userSpaceOnUse"
     spreadMethod="pad" /></defs><polyline
   points="2.285 37.429 2.285 106.799 62.105 141.486 121.926 106.799 121.926 37.429 62.105 2.743 2.285 37.429"
   style="mix-blend-mode:normal;fill:#ffffff;fill-opacity:1;fill-rule:nonzero;stroke:url(#linearGradient10849);stroke-width:11.5;stroke-dasharray:none;stroke-opacity:1"
   clip-path="none"
   id="polyline29"
   transform="matrix(0.94751067,0,0,0.95858784,3.4338761,2.8933862)" /><rect
   width="133.33333%"
   height="133.33333%"
   style="fill:none;stroke:none;stroke-width:1.33333;stroke-linecap:round;stroke-linejoin:round;stroke-miterlimit:10"
   id="rect6"
   x="-119.34284"
   y="-88.484215" /><rect
   x="-262.77606"
   y="-168.20638"
   width="750.78717"
   height="562.53766"
   id="rect15"
   style="stroke-width:2.51267" /><g
   transform="matrix(0.75795762,0,0,0.75795762,11.877826,16.606951)"
   id="g416"><polygon
     stroke-width="1"
     stroke="#000000"
     fill="#000000"
     points="60,129 60,140 10,140 10,109 9,109 9,81 13,75 20,69 21,65 25,58 30,55 33,54 33,72 33,10 126,10 138,22 138,95 86,95 86,100 82,108 78,113 74,116 68,125 "
     id="polygon384" /><polygon
     stroke-width="1"
     stroke="#000000"
     fill="#7777cc"
     points="136,22 136,94 127,94 127,56 64,56 62,54 53,54 52,56 45,56 45,65 35,72 35,11 58,11 58,33 113,33 113,11 125,11 "
     id="polygon386" /><polygon
     stroke-width="1"
     stroke="#000000"
     fill="#ffffff"
     points="59,55 62,58 62,65 61,66 54,66 51,63 42,70 30,76 18,85 18,84 30,75 26,74 23,71 26,73 30,74 33,72 33,54 30,56 26,58 22,65 21,69 14,75 10,81 10,108 11,109 11,139 40,139 40,118 48,118 52,114 52,95 50,92 50,82 65,69 65,57 62,55 "
     id="polygon388" /><polygon
     stroke-width="1"
     stroke="#000000"
     fill="#ffffff"
     points="61,58 61,65 54,65 50,61 52,54 60,55 "
     id="polygon390" /><polygon
     stroke-width="1"
     stroke="#000000"
     fill="#ffffff"
     points="51,82 66,69 66,57 125,57 125,94 52,94 51,92 "
     id="polygon392" /><polygon
     stroke-width="1"
     stroke="#000000"
     fill="#bbbbbb"
     points="111,11 111,32 60,32 60,11 "
     id="polygon394" /><polygon
     stroke-width="1"
     stroke="#000000"
     fill="#000000"
     points="107,14 107,28 96,28 96,14 "
     id="polygon396" /><polygon
     stroke-width="1"
     stroke="#000000"
     fill="#7777cc"
     points="105,15 105,27 98,27 98,15 "
     id="polygon398" /><polygon
     stroke-width="1"
     stroke="#000000"
     fill="#ffffff"
     points="50,57 50,59 47,63 47,57 "
     id="polygon400" /><polygon
     stroke-width="1"
     stroke="#000000"
     fill="#ffffff"
     points="41,119 48,119 53,114 53,105 57,107 65,107 65,109 69,114 73,114 73,116 67,125 59,128 59,139 41,139 "
     id="polygon402" /><polygon
     stroke-width="1"
     stroke="#000000"
     fill="#ffffff"
     points="53,100 53,95 74,95 64,105 63,105 65,103 60,98 57,98 "
     id="polygon404" /><polygon
     stroke-width="1"
     stroke="#000000"
     fill="#ffffff"
     points="53,95 53,100 58,97 "
     id="polygon406" /><polygon
     stroke-width="1"
     stroke="#000000"
     fill="#ffffff"
     points="81,108 78,112 73,113 70,113 67,109 67,106 78,95 85,95 85,100 "
     id="polygon408" /><polygon
     stroke-width="1"
     stroke="#000000"
     fill="#ffffff"
     points="68,109 70,112 72,112 76,111 77,108 73,105 68,106 "
     id="polygon410" /><polygon
     stroke-width="1"
     stroke="#000000"
     fill="#ffffff"
     points="60,99 57,99 54,101 54,104 62,106 64,103 "
     id="polygon412" /><polyline
     stroke-width="1"
     stroke="#000000"
     fill="none"
     points="126,11 137,22 137,94"
     id="polyline414" /></g><g
   aria-label="2"
   transform="matrix(1.3497273,0,0,0.7408904,12,6)"
   id="text2050"
   style="font-size:34.4209px;line-height:1.25;letter-spacing:0px;word-spacing:0px;fill:#bbbbbb;fill-opacity:1;stroke-width:1.07565"><path
     d="M 58.470147,105.03847 H 41.982402 v -3.61352 l 5.781635,-6.235431 q 1.09246,-1.176496 1.983235,-2.168113 0.890776,-0.991618 1.529445,-1.932814 0.638669,-0.941197 0.991617,-1.916007 0.352949,-0.974811 0.352949,-2.100885 0,-1.243724 -0.756319,-1.932815 -0.739511,-0.68909 -2.000042,-0.68909 -1.327759,0 -2.554676,0.655476 -1.226917,0.655476 -2.571483,1.865586 l -2.823589,-3.344609 q 0.756318,-0.68909 1.579865,-1.310952 0.823547,-0.638669 1.815165,-1.126074 0.991617,-0.487405 2.18492,-0.773126 1.193302,-0.302527 2.672325,-0.302527 1.764744,0 3.159731,0.487405 1.411795,0.487405 2.403413,1.394988 0.991617,0.890775 1.512637,2.168113 0.537826,1.277338 0.537826,2.87401 0,1.445409 -0.504212,2.773169 -0.504212,1.310952 -1.37818,2.58829 -0.873969,1.260531 -2.033657,2.521062 -1.142881,1.243724 -2.453834,2.537869 l -2.958046,2.974855 v 0.2353 h 10.01702 z"
     style="font-weight:bold;fill:#bbbbbb;fill-opacity:1"
     id="path2052" /></g>
<metadata>
  <rdf:RDF xmlns:rdf="http://www.w3.org/1999/02/22-rdf-syntax-ns#" xmlns:schema="http://schema.org/">
    <rdf:Description rdf:about="Based on https://commons.wikimedia.org/wiki/File:Amiga_Insert_Workbench_%28vector%29.svg by Aeroid">
      <schema:license rdf:resource="https://creativecommons.org/licenses/by-sa/4.0/"/>
    </rdf:Description>
  </rdf:RDF>
</metadata>
</svg>